# xmcd
#
# Track frame offsets:
#	150
#	22559
#	39583
#	60731
#	79667
#	102242
#	125416
#	145590
#	160552
#	180986
#
# Disc length: 2615 seconds
#
# Revision: 1
# Processed by: cddbd v1.5PL3 Copyright (c) Steve Scherf et al.
# Submitted via: CDex 1.50Beta5
#
DISCID=6a0a350a
DTITLE=オホーツク電気商会 - りとるありすあると
DYEAR=1900
DGENRE=
TTITLE0=悪夢〜 Nightmare
TTITLE1=戦闘〜 Aggressive
TTITLE2=孤独な惑星
TTITLE3=dANCE iN tHE mIDNIGHT
TTITLE4=混乱〜 Confusion
TTITLE5=霧雨〜 MistyRain
TTITLE6=祭典〜 Carnival
TTITLE7=CROSS THE TIME
TTITLE8=廻る廻る
TTITLE9=渇望の太陽・あると
EXTD=
EXTT0=
EXTT1=
EXTT2=
EXTT3=
EXTT4=
EXTT5=
EXTT6=
EXTT7=
EXTT8=
EXTT9=
PLAYORDER=
